<svg xmlns="http://www.w3.org/2000/svg" width="44" height="44" viewBox="0 0 54 35">
  <g id="two-men" transform="translate(1 1)">
    <path id="Shape" d="M37.818,33V27.107a9.72,9.72,0,0,0-4.727-8.015,8.883,8.883,0,0,1,2.363-.236c5.436,0,16.546,2.829,16.546,8.25V33ZM0,33V27.107c0-5.422,11.109-8.25,16.546-8.25s16.546,2.829,16.546,8.25V33ZM28.364,7.071a7.091,7.091,0,0,1,14.182,0,7.091,7.091,0,0,1-14.182,0Zm-18.909,0A6.955,6.955,0,0,1,16.546,0a6.955,6.955,0,0,1,7.091,7.071,6.955,6.955,0,0,1-7.091,7.071A6.954,6.954,0,0,1,9.455,7.071Z" fill="none" stroke="#7ab737" stroke-miterlimit="10" stroke-width="2"/>
  </g>
</svg>
